<svg xmlns="http://www.w3.org/2000/svg" data-name="Layer 1" viewBox="0 0 24 30" x="0px" y="0px"><title>IconSheets</title><path d="M6.21,6.79a1,1,0,0,0-1.42,0l-4.5,4.5a1,1,0,0,0,0,1.42l4.5,4.5a1,1,0,0,0,1.42,0,1,1,0,0,0,0-1.42L2.41,12l3.8-3.79A1,1,0,0,0,6.21,6.79Z"/><path d="M19.21,6.79a1,1,0,1,0-1.42,1.42L21.59,12l-3.8,3.79a1,1,0,0,0,0,1.42,1,1,0,0,0,1.42,0l4.5-4.5a1,1,0,0,0,0-1.42Z"/><path d="M16.45,3.11a1,1,0,0,0-1.34.44l-8,16a1,1,0,0,0,.44,1.34A.93.93,0,0,0,8,21a1,1,0,0,0,.89-.55l8-16A1,1,0,0,0,16.45,3.11Z"/><text x="0" y="39" fill="#000000" font-size="5px" font-weight="bold" font-family="'Helvetica Neue', Helvetica, Arial-Unicode, Arial, Sans-serif">Created by Sahil Sharma</text><text x="0" y="44" fill="#000000" font-size="5px" font-weight="bold" font-family="'Helvetica Neue', Helvetica, Arial-Unicode, Arial, Sans-serif">from the Noun Project</text></svg>